<svg width="62" height="62" viewBox="0 0 62 62" fill="none" xmlns="http://www.w3.org/2000/svg">
<path id="hearing" fill-rule="evenodd" clip-rule="evenodd" d="M39.8039 0.000459243C45.5602 0.0374905 50.9649 2.21483 55.0223 6.13171C59.0948 10.0636 61.3706 15.3201 61.4297 20.9334C61.5066 28.2098 57.8011 34.9256 51.518 38.8969C48.9788 40.5019 47.678 43.4217 48.2822 46.1625C48.5006 47.1548 48.5953 48.1772 48.5634 49.2009C48.465 52.3481 47.1619 55.3331 44.8941 57.6061C42.6389 59.8669 39.6295 61.2197 36.4209 61.4151C36.1495 61.432 35.8781 61.44 35.6077 61.44C32.1614 61.44 28.8431 60.1069 26.3981 57.7158C23.7441 55.1198 22.6444 51.292 23.2177 46.6453C24.2803 38.0358 23.3044 31.7245 19.8497 24.8611C18.2124 21.6075 17.8341 18.2691 18.7556 15.2067C20.0592 10.8764 22.8291 6.98765 26.5552 4.25671C30.3966 1.4414 34.973 -0.0295408 39.8039 0.000459243ZM45.4219 40.6411C46.2938 38.6836 47.7366 37.028 49.5942 35.8537C54.8147 32.5542 57.8934 26.9906 57.8302 20.9714C57.7814 16.3294 55.8961 11.9789 52.522 8.72155C49.133 5.45015 44.6081 3.6314 39.7809 3.60046C35.7347 3.5803 31.8966 4.80562 28.6833 7.16062C25.5839 9.43171 23.2824 12.6581 22.2033 16.2445C21.3806 18.9778 22.2178 21.5587 23.0653 23.2425C27.7842 32.617 27.5967 40.5567 26.7909 47.0864C26.3541 50.6259 27.0689 53.3362 28.9153 55.1419C30.8264 57.0108 33.4809 57.9872 36.202 57.8217C38.5308 57.6801 40.7128 56.7005 42.3455 55.0636C43.965 53.4403 44.8955 51.3183 44.9649 49.0884C44.9878 48.3628 44.9208 47.6386 44.7666 46.9373C44.3011 44.8251 44.528 42.6483 45.4219 40.6411ZM39.6567 8.52468C32.5017 8.52468 26.6803 14.1905 26.6803 21.1547V21.1758C26.6803 21.743 26.948 22.2773 27.4022 22.6172C27.8564 22.957 28.4442 23.0625 28.9884 22.9026C30.0361 22.5947 31.2347 22.7034 32.1952 23.1937C33.6258 23.925 34.5202 25.4512 34.4203 26.9916C34.3209 28.5155 33.2536 29.9189 31.7639 30.4833C30.8344 30.8358 30.3666 31.875 30.7186 32.8045C30.9914 33.5241 31.6758 33.967 32.4024 33.967C32.6142 33.967 32.8298 33.9291 33.0398 33.8498C35.8252 32.7942 37.8234 30.1322 38.0124 27.225C38.2045 24.2714 36.5245 21.3633 33.8325 19.988C32.8078 19.4644 31.6683 19.177 30.517 19.1339C31.4723 15.1247 35.2078 12.1247 39.6567 12.1247C44.827 12.1247 49.0331 16.1756 49.0331 21.1547C49.0331 22.1489 49.8394 22.9547 50.8331 22.9547C51.8274 22.9547 52.6336 22.1489 52.6336 21.1547C52.6336 14.1905 46.8122 8.52468 39.6567 8.52468ZM11.13 24.9787C11.8214 24.2648 12.9614 24.247 13.6749 24.9384C17.1563 28.3116 19.0734 32.8073 19.0734 37.5975C19.0734 42.3876 17.1563 46.8834 13.6753 50.2566C13.3256 50.5955 12.8738 50.7642 12.4228 50.7642C11.9527 50.7642 11.483 50.5809 11.13 50.2167C10.4381 49.5028 10.4559 48.3633 11.1699 47.6714C13.9453 44.9822 15.4734 41.4047 15.4734 37.5975C15.4734 33.7908 13.9453 30.2133 11.1699 27.5241C10.4559 26.8322 10.4381 25.6926 11.13 24.9787ZM0.5311 33.7992C-0.1739 34.4995 -0.17765 35.6395 0.523132 36.3445C1.09407 36.9192 1.09407 37.8544 0.523132 38.4291C-0.17765 39.1341 -0.1739 40.2736 0.5311 40.9744C0.882194 41.3236 1.3411 41.4975 1.80001 41.4975C2.26266 41.4975 2.72532 41.3203 3.07688 40.9664C5.03813 38.9925 5.03813 35.7811 3.07688 33.8072C2.3761 33.1022 1.23657 33.0984 0.5311 33.7992ZM5.86923 30.0764C6.56063 29.3625 7.70016 29.3442 8.41454 30.0361C10.4953 32.0526 11.6414 34.7381 11.6414 37.5975C11.6414 40.4573 10.4953 43.1428 8.41454 45.1594C8.06485 45.4978 7.61298 45.6665 7.16204 45.6665C6.69141 45.6665 6.22219 45.4833 5.86923 45.1191C5.17735 44.4051 5.19516 43.2656 5.90907 42.5737C7.28438 41.2416 8.04141 39.4744 8.04141 37.5975C8.04141 35.7211 7.28438 33.9539 5.90907 32.6217C5.19516 31.9298 5.17735 30.7903 5.86923 30.0764Z" fill="#FF6565"/>
</svg>
